#format: frame checksums
#version: 2
#hash: MD5
#tb 0: 1001/30000
#media_type 0: video
#codec_id 0: rawvideo
#dimensions 0: 208x198
#sar 0: 1/1
#stream#, dts,        pts, duration,     size, hash
0,          0,          0,        1,    61776, 1f1fa3cdf865d8c75183f4ba6203b675
0,          1,          1,        1,    61776, ead33ead8fea5bd5d831a79f4c75a590
0,          2,          2,        1,    61776, 9a406b4464989fd4bb7cbcb1b18aeaa7
0,          3,          3,        1,    61776, fab3d228e7032f2cdc440dbfcb17c4c1
0,          4,          4,        1,    61776, f2f3f8b8d9ece21c359c89245157c613
0,          5,          5,        1,    61776, 321f5a8ecb2cec1780013fe72c237bde
0,          6,          6,        1,    61776, 6f025b1f4ef61d261f05ca149a9470e6
0,          7,          7,        1,    61776, 85abcc8d8e6b5f286ed6aa6c588cf416
0,          8,          8,        1,    61776, b28d710dd44389f774aa02edd6327d5c
0,          9,          9,        1,    61776, 79374bef9819eecafa7396d70c80be7f
